<?xml version="1.0" encoding="UTF-8"?>
<svg width="101px" height="99px" viewBox="0 0 101 99" version="1.1" xmlns="http://www.w3.org/2000/svg" xmlns:xlink="http://www.w3.org/1999/xlink">
    <!-- Generator: Sketch 46.2 (44496) - http://www.bohemiancoding.com/sketch -->
    <title>github</title>
    <desc>Created with Sketch.</desc>
    <defs>
        <polygon id="path-1" points="2.52089734e-19 0 2.52089734e-19 99 101 99 101 2.21383529e-14"></polygon>
    </defs>
    <g id="Page-1" stroke="none" stroke-width="1" fill="none" fill-rule="evenodd" opacity="0.137681159">
        <g id="todoList_Desktop-HD" transform="translate(-1243.000000, -843.000000)">
            <g id="Group-3" transform="translate(1243.000000, 836.000000)">
                <g id="github" transform="translate(0.000000, 7.000000)">
                    <mask id="mask-2" fill="white">
                        <use xlink:href="#path-1"></use>
                    </mask>
                    <g id="Clip-2"></g>
                    <path d="M50.4968999,0 C22.6118478,0 0,22.7225815 0,50.7573803 C0,73.1777418 14.4679865,92.1989073 34.5377839,98.9131762 C37.0643339,99.3774111 37.9850522,97.810229 37.9850522,96.4642596 C37.9850522,95.261611 37.9416513,92.0680492 37.9168508,87.8338536 C23.8704727,90.8996729 20.906814,81.0292303 20.906814,81.0292303 C18.6096685,75.1655393 15.2988029,73.6077043 15.2988029,73.6077043 C10.7138122,70.4577619 15.6460098,70.5200753 15.6460098,70.5200753 C20.7146102,70.881493 23.380663,75.7512853 23.380663,75.7512853 C27.8850522,83.506188 35.198097,81.2660212 38.078054,79.9699025 C38.5368631,76.6891019 39.8388889,74.4520509 41.2835175,73.1839732 C30.0705955,71.9034328 18.281062,67.5477261 18.281062,48.0997138 C18.281062,42.5600525 20.249601,38.0298683 23.4798649,34.4811201 C22.9590546,33.1974641 21.2261203,28.0379145 23.9727747,21.0494667 C23.9727747,21.0494667 28.2136587,19.6848032 37.8610497,26.2526356 C41.8880295,25.1247631 46.209515,24.5639425 50.5031001,24.5421328 C54.790485,24.5639425 59.1119705,25.1247631 63.1451504,26.2526356 C72.7863413,19.6848032 77.0179251,21.0494667 77.0179251,21.0494667 C79.7738797,28.0379145 78.0409454,33.1974641 77.5201351,34.4811201 C80.7565991,38.0298683 82.7127379,42.5600525 82.7127379,48.0997138 C82.7127379,67.5975768 70.9046041,71.8878544 59.6544813,73.1434695 C61.4680172,74.7106515 63.0831492,77.8076275 63.0831492,82.5434459 C63.0831492,89.3262596 63.0211479,94.8004918 63.0211479,96.4642596 C63.0211479,97.8226917 63.9294659,99.4023364 66.4932167,98.9069449 C86.5413137,92.1802133 101,73.1715105 101,50.7573803 C101,22.7225815 78.3881522,0 50.4968999,0" id="Fill-1" fill="#181717" mask="url(#mask-2)"></path>
                </g>
            </g>
        </g>
    </g>
</svg>